<svg width="1585" height="267" viewBox="0 0 1585 267" fill="none" xmlns="http://www.w3.org/2000/svg">
<mask id="mask0_113_12" style="mask-type:alpha" maskUnits="userSpaceOnUse" x="0" y="14" width="238" height="238">
<circle cx="119" cy="133" r="119" fill="#EEEFFF"/>
</mask>
<g mask="url(#mask0_113_12)">
<circle cx="119" cy="133" r="119" fill="#EEEFFF"/>
<path d="M43.4562 96.6491C50.3696 96.6491 56.3778 97.5497 61.4806 99.3509C66.748 100.988 70.5339 102.626 72.8384 104.263C78.4351 108.029 81.8918 105.573 83.2087 96.8947H88.3938C88.0646 101.48 87.8176 107.129 87.653 113.842C87.4884 120.392 87.4061 129.152 87.4061 140.123H82.221C81.398 134.064 79.8342 128.088 77.5297 122.193C75.2252 116.298 71.8508 111.468 67.4064 107.702C63.1266 103.936 57.53 102.053 50.6165 102.053C45.843 102.053 41.8101 103.444 38.518 106.228C35.2258 108.848 33.5798 112.696 33.5798 117.772C33.5798 122.684 35.0612 127.023 38.0241 130.789C40.9871 134.392 44.773 137.912 49.382 141.351C54.1556 144.626 59.0938 148.146 64.1966 151.912C69.6286 156.006 74.5668 160.099 79.0112 164.193C83.4556 168.123 86.9946 172.462 89.6283 177.211C92.262 181.959 93.5789 187.608 93.5789 194.158C93.5789 201.526 91.439 207.994 87.1592 213.561C82.8794 218.965 77.2005 223.14 70.1224 226.088C63.209 229.035 55.4724 230.509 46.9129 230.509C41.9747 230.509 37.5303 230.018 33.5798 229.035C29.7938 228.053 26.5017 226.825 23.7034 225.351C21.5635 224.368 19.5059 223.468 17.5306 222.649C15.7199 221.667 13.9916 220.848 12.3455 220.193C10.6994 219.702 9.21797 220.275 7.90112 221.912C6.74887 223.55 5.84354 225.842 5.18511 228.789H0C0.329213 223.55 0.576123 217.164 0.74073 209.632C0.905336 202.099 0.987639 192.111 0.987639 179.667H6.17275C7.16039 188.509 8.97106 196.368 11.6048 203.246C14.2385 209.959 17.7775 215.281 22.2219 219.211C26.8309 222.977 32.5921 224.86 39.5056 224.86C42.3039 224.86 45.0199 224.287 47.6536 223.14C50.2873 221.994 52.4272 220.111 54.0733 217.491C55.884 214.871 56.7893 211.515 56.7893 207.421C56.7893 200.216 54.4025 194.24 49.6289 189.491C45.0199 184.743 39.0941 179.585 31.8514 174.018C26.584 169.76 21.5635 165.585 16.7899 161.491C12.1809 157.234 8.39494 152.649 5.43202 147.737C2.4691 142.661 0.987639 136.93 0.987639 130.544C0.987639 123.175 2.96292 116.953 6.91348 111.877C10.864 106.801 16.0491 103.035 22.4688 100.579C29.0531 97.9591 36.0489 96.6491 43.4562 96.6491Z" fill="#363636"/>
<path d="M193.309 96.6491C206.149 96.6491 216.766 101.889 225.161 112.368C233.72 122.684 238 138.649 238 160.263C238 177.292 235.366 190.965 230.099 201.281C224.996 211.596 218.165 219.047 209.605 223.632C201.046 228.216 191.663 230.509 181.458 230.509C174.709 230.509 168.454 229.363 162.692 227.07C156.931 224.778 151.993 221.012 147.878 215.772L151.335 214.544C154.298 218.146 157.754 220.848 161.705 222.649C165.82 224.45 169.853 225.351 173.803 225.351C182.857 225.351 189.606 220.275 194.05 210.123C198.494 199.971 200.717 184.497 200.717 163.702C200.717 149.62 199.811 138.485 198.001 130.298C196.355 121.947 193.885 116.053 190.593 112.614C187.301 109.012 183.351 107.211 178.742 107.211C172.98 107.211 167.713 109.585 162.939 114.333C158.166 118.918 155.45 125.386 154.791 133.737L153.557 125.14C156.52 115.807 161.54 108.766 168.618 104.018C175.696 99.1053 183.927 96.6491 193.309 96.6491ZM155.532 35V222.158C151.417 221.503 147.219 221.503 142.94 222.158C138.66 222.813 134.709 223.959 131.088 225.596C127.467 227.07 124.421 228.871 121.952 231L118.249 228.789C118.907 226.497 119.319 224.205 119.483 221.912C119.812 219.62 119.977 217.327 119.977 215.035V64.4737C119.977 57.1053 118.825 51.7018 116.52 48.2632C114.38 44.6608 110.265 42.8596 104.175 42.8596V37.7018C109.442 38.193 114.545 38.4386 119.483 38.4386C126.232 38.4386 132.652 38.193 138.742 37.7018C144.833 37.0468 150.429 36.1462 155.532 35Z" fill="#363636"/>
</g>
<path d="M360.874 72.8C368.741 72.8 374.808 73.6667 379.074 75.4C383.341 77 387.008 78.7333 390.074 80.6C391.674 81.5333 392.941 82.2667 393.874 82.8C394.941 83.2 395.941 83.4 396.874 83.4C398.208 83.4 399.141 82.6667 399.674 81.2C400.341 79.7333 400.874 77.5333 401.274 74.6H405.874C405.741 77.1333 405.541 80.2 405.274 83.8C405.141 87.2667 405.008 91.8667 404.874 97.6C404.874 103.333 404.874 110.867 404.874 120.2H400.274C399.741 113.267 398.141 106.533 395.474 100C392.808 93.4667 389.008 88.1333 384.074 84C379.274 79.7333 373.341 77.6 366.274 77.6C359.874 77.6 354.608 79.4 350.474 83C346.341 86.6 344.274 91.6 344.274 98C344.274 103.333 345.608 107.933 348.274 111.8C350.941 115.533 354.808 119.2 359.874 122.8C365.074 126.4 371.341 130.733 378.674 135.8C385.074 139.933 390.808 144.067 395.874 148.2C400.941 152.333 405.008 157 408.074 162.2C411.141 167.4 412.674 173.6 412.674 180.8C412.674 189.6 410.341 196.867 405.674 202.6C401.141 208.333 395.141 212.667 387.674 215.6C380.208 218.4 372.008 219.8 363.074 219.8C354.808 219.8 348.208 219 343.274 217.4C338.341 215.8 334.208 214.133 330.874 212.4C327.941 210.533 325.674 209.6 324.074 209.6C322.741 209.6 321.741 210.333 321.074 211.8C320.541 213.267 320.074 215.467 319.674 218.4H315.074C315.341 215.2 315.474 211.467 315.474 207.2C315.608 202.933 315.674 197.4 315.674 190.6C315.808 183.667 315.874 174.933 315.874 164.4H320.474C321.008 173.2 322.474 181.467 324.874 189.2C327.408 196.8 331.208 202.933 336.274 207.6C341.474 212.267 348.341 214.6 356.874 214.6C361.541 214.6 365.674 213.8 369.274 212.2C373.008 210.467 376.008 207.933 378.274 204.6C380.541 201.267 381.674 197.133 381.674 192.2C381.674 186.6 380.341 181.733 377.674 177.6C375.141 173.467 371.608 169.6 367.074 166C362.674 162.4 357.541 158.733 351.674 155C345.408 150.867 339.541 146.733 334.074 142.6C328.608 138.467 324.208 133.733 320.874 128.4C317.674 123.067 316.074 116.733 316.074 109.4C316.074 101 318.141 94.1333 322.274 88.8C326.541 83.3333 332.074 79.3333 338.874 76.8C345.808 74.1333 353.141 72.8 360.874 72.8ZM453.271 218.4C447.271 218.4 442.271 217.267 438.271 215C434.271 212.733 431.338 209.733 429.471 206C427.604 202.133 426.671 197.933 426.671 193.4C426.671 187.667 427.938 183 430.471 179.4C433.138 175.8 436.538 172.867 440.671 170.6C444.804 168.333 449.138 166.467 453.671 165C458.338 163.533 462.738 162.133 466.871 160.8C471.138 159.333 474.538 157.667 477.071 155.8C479.738 153.8 481.071 151.267 481.071 148.2V132.6C481.071 129.133 480.471 126.067 479.271 123.4C478.204 120.6 476.471 118.467 474.071 117C471.804 115.533 468.804 114.8 465.071 114.8C462.404 114.8 459.738 115.2 457.071 116C454.404 116.667 452.204 117.867 450.471 119.6C454.204 120.933 457.071 123 459.071 125.8C461.204 128.467 462.271 131.533 462.271 135C462.271 139.533 460.671 143.133 457.471 145.8C454.404 148.467 450.738 149.8 446.471 149.8C441.671 149.8 438.004 148.333 435.471 145.4C433.071 142.333 431.871 138.667 431.871 134.4C431.871 130.533 432.804 127.333 434.671 124.8C436.671 122.267 439.404 119.867 442.871 117.6C446.604 115.467 451.071 113.8 456.271 112.6C461.604 111.4 467.338 110.8 473.471 110.8C479.604 110.8 485.138 111.467 490.071 112.8C495.004 114 499.138 116.267 502.471 119.6C505.538 122.667 507.538 126.467 508.471 131C509.404 135.4 509.871 141 509.871 147.8V202.2C509.871 205.533 510.204 207.867 510.871 209.2C511.538 210.4 512.671 211 514.271 211C515.471 211 516.604 210.667 517.671 210C518.871 209.333 520.138 208.533 521.471 207.6L523.471 211C520.671 213.4 517.404 215.267 513.671 216.6C510.071 217.8 506.004 218.4 501.471 218.4C496.538 218.4 492.604 217.733 489.671 216.4C486.738 214.933 484.604 213 483.271 210.6C482.071 208.2 481.471 205.4 481.471 202.2C478.271 207.267 474.404 211.267 469.871 214.2C465.338 217 459.804 218.4 453.271 218.4ZM467.471 205.6C470.138 205.6 472.538 205 474.671 203.8C476.938 202.467 479.071 200.333 481.071 197.4V156.4C479.871 158.4 478.204 160.2 476.071 161.8C473.938 163.4 471.671 165.067 469.271 166.8C466.871 168.4 464.538 170.2 462.271 172.2C460.138 174.2 458.404 176.667 457.071 179.6C455.738 182.533 455.071 186.067 455.071 190.2C455.071 195.4 456.204 199.267 458.471 201.8C460.738 204.333 463.738 205.6 467.471 205.6ZM556.787 218.4C550.787 218.4 545.787 217.267 541.787 215C537.787 212.733 534.853 209.733 532.987 206C531.12 202.133 530.187 197.933 530.187 193.4C530.187 187.667 531.453 183 533.987 179.4C536.653 175.8 540.053 172.867 544.187 170.6C548.32 168.333 552.653 166.467 557.187 165C561.853 163.533 566.253 162.133 570.387 160.8C574.653 159.333 578.053 157.667 580.587 155.8C583.253 153.8 584.587 151.267 584.587 148.2V132.6C584.587 129.133 583.987 126.067 582.787 123.4C581.72 120.6 579.987 118.467 577.587 117C575.32 115.533 572.32 114.8 568.587 114.8C565.92 114.8 563.253 115.2 560.587 116C557.92 116.667 555.72 117.867 553.987 119.6C557.72 120.933 560.587 123 562.587 125.8C564.72 128.467 565.787 131.533 565.787 135C565.787 139.533 564.187 143.133 560.987 145.8C557.92 148.467 554.253 149.8 549.987 149.8C545.187 149.8 541.52 148.333 538.987 145.4C536.587 142.333 535.387 138.667 535.387 134.4C535.387 130.533 536.32 127.333 538.187 124.8C540.187 122.267 542.92 119.867 546.387 117.6C550.12 115.467 554.587 113.8 559.787 112.6C565.12 111.4 570.853 110.8 576.987 110.8C583.12 110.8 588.653 111.467 593.587 112.8C598.52 114 602.653 116.267 605.987 119.6C609.053 122.667 611.053 126.467 611.987 131C612.92 135.4 613.387 141 613.387 147.8V202.2C613.387 205.533 613.72 207.867 614.387 209.2C615.053 210.4 616.187 211 617.787 211C618.987 211 620.12 210.667 621.187 210C622.387 209.333 623.653 208.533 624.987 207.6L626.987 211C624.187 213.4 620.92 215.267 617.187 216.6C613.587 217.8 609.52 218.4 604.987 218.4C600.053 218.4 596.12 217.733 593.187 216.4C590.253 214.933 588.12 213 586.787 210.6C585.587 208.2 584.987 205.4 584.987 202.2C581.787 207.267 577.92 211.267 573.387 214.2C568.853 217 563.32 218.4 556.787 218.4ZM570.987 205.6C573.653 205.6 576.053 205 578.187 203.8C580.453 202.467 582.587 200.333 584.587 197.4V156.4C583.387 158.4 581.72 160.2 579.587 161.8C577.453 163.4 575.187 165.067 572.787 166.8C570.387 168.4 568.053 170.2 565.787 172.2C563.653 174.2 561.92 176.667 560.587 179.6C559.253 182.533 558.587 186.067 558.587 190.2C558.587 195.4 559.72 199.267 561.987 201.8C564.253 204.333 567.253 205.6 570.987 205.6ZM701.302 110.8C711.702 110.8 720.302 115.067 727.102 123.6C734.036 132 737.502 145 737.502 162.6C737.502 176.467 735.369 187.6 731.102 196C726.969 204.4 721.436 210.467 714.502 214.2C707.569 217.933 699.969 219.8 691.702 219.8C686.236 219.8 681.169 218.867 676.502 217C671.836 215.133 667.836 212.067 664.502 207.8L667.302 206.8C669.702 209.733 672.502 211.933 675.702 213.4C679.036 214.867 682.302 215.6 685.502 215.6C692.836 215.6 698.302 211.467 701.902 203.2C705.502 194.933 707.302 182.333 707.302 165.4C707.302 153.933 706.569 144.867 705.102 138.2C703.769 131.4 701.769 126.6 699.102 123.8C696.436 120.867 693.236 119.4 689.502 119.4C684.836 119.4 680.569 121.333 676.702 125.2C672.836 128.933 670.636 134.2 670.102 141L669.102 134C671.502 126.4 675.569 120.667 681.302 116.8C687.036 112.8 693.702 110.8 701.302 110.8ZM670.702 60.6V213C667.369 212.467 663.969 212.467 660.502 213C657.036 213.533 653.836 214.467 650.902 215.8C647.969 217 645.502 218.467 643.502 220.2L640.502 218.4C641.036 216.533 641.369 214.667 641.502 212.8C641.769 210.933 641.902 209.067 641.902 207.2V84.6C641.902 78.6 640.969 74.2 639.102 71.4C637.369 68.4667 634.036 67 629.102 67V62.8C633.369 63.2 637.502 63.4 641.502 63.4C646.969 63.4 652.169 63.2 657.102 62.8C662.036 62.2667 666.569 61.5333 670.702 60.6ZM775.89 62C781.49 62 785.89 63.4 789.09 66.2C792.423 68.8667 794.09 72.6 794.09 77.4C794.09 82.2 792.423 86 789.09 88.8C785.89 91.4667 781.49 92.8 775.89 92.8C770.29 92.8 765.823 91.4667 762.49 88.8C759.29 86 757.69 82.2 757.69 77.4C757.69 72.6 759.29 68.8667 762.49 66.2C765.823 63.4 770.29 62 775.89 62ZM791.49 111.4V198.4C791.49 204 792.423 207.8 794.29 209.8C796.29 211.8 799.623 212.8 804.29 212.8V217C801.89 216.867 798.157 216.733 793.09 216.6C788.023 216.333 782.89 216.2 777.69 216.2C772.49 216.2 767.223 216.333 761.89 216.6C756.557 216.733 752.557 216.867 749.89 217V212.8C754.557 212.8 757.823 211.8 759.69 209.8C761.69 207.8 762.69 204 762.69 198.4V135.4C762.69 129.4 761.757 125 759.89 122.2C758.157 119.267 754.823 117.8 749.89 117.8V113.6C754.157 114 758.29 114.2 762.29 114.2C767.89 114.2 773.09 114 777.89 113.6C782.823 113.067 787.357 112.333 791.49 111.4ZM853.576 80.8V113.6H877.176V117.6H853.576V198.4C853.576 202.4 854.309 205.267 855.776 207C857.242 208.6 859.442 209.4 862.376 209.4C864.776 209.4 867.176 208.533 869.576 206.8C871.976 204.933 874.109 201.8 875.976 197.4L879.376 199.2C877.242 205.2 873.976 210.133 869.576 214C865.309 217.867 859.442 219.8 851.976 219.8C847.576 219.8 843.709 219.2 840.376 218C837.042 216.933 834.242 215.267 831.976 213C829.042 210.067 827.109 206.467 826.176 202.2C825.242 197.8 824.776 192.133 824.776 185.2V117.6H807.976V113.6H824.776V87.2C830.376 87.2 835.509 86.7333 840.176 85.8C844.976 84.7333 849.442 83.0667 853.576 80.8ZM952.088 110.8C956.355 110.8 959.822 111.733 962.488 113.6C965.155 115.333 967.088 117.6 968.288 120.4C969.622 123.2 970.288 126.133 970.288 129.2C970.288 134.133 968.822 138.2 965.888 141.4C963.088 144.467 959.355 146 954.688 146C950.022 146 946.355 144.867 943.688 142.6C941.155 140.2 939.888 137.067 939.888 133.2C939.888 129.467 940.688 126.4 942.288 124C944.022 121.467 946.155 119.333 948.688 117.6C946.822 117.067 944.955 117.133 943.088 117.8C940.555 118.2 938.155 119.267 935.888 121C933.622 122.6 931.688 124.667 930.088 127.2C928.488 129.6 927.222 132.267 926.288 135.2C925.355 138 924.888 140.733 924.888 143.4V196.4C924.888 202.8 926.422 207.133 929.488 209.4C932.688 211.667 937.422 212.8 943.688 212.8V217C940.622 216.867 936.155 216.733 930.288 216.6C924.422 216.333 918.288 216.2 911.888 216.2C906.555 216.2 901.155 216.333 895.688 216.6C890.222 216.733 886.088 216.867 883.288 217V212.8C887.955 212.8 891.222 211.8 893.088 209.8C895.088 207.8 896.088 204 896.088 198.4V135.4C896.088 129.4 895.155 125 893.288 122.2C891.555 119.267 888.222 117.8 883.288 117.8V113.6C887.555 114 891.688 114.2 895.688 114.2C901.288 114.2 906.488 114 911.288 113.6C916.222 113.067 920.755 112.333 924.888 111.4V130C926.488 126.4 928.622 123.133 931.288 120.2C933.955 117.267 937.022 115 940.488 113.4C943.955 111.667 947.822 110.8 952.088 110.8ZM1004.25 218.4C998.248 218.4 993.248 217.267 989.248 215C985.248 212.733 982.314 209.733 980.448 206C978.581 202.133 977.648 197.933 977.648 193.4C977.648 187.667 978.914 183 981.448 179.4C984.114 175.8 987.514 172.867 991.648 170.6C995.781 168.333 1000.11 166.467 1004.65 165C1009.31 163.533 1013.71 162.133 1017.85 160.8C1022.11 159.333 1025.51 157.667 1028.05 155.8C1030.71 153.8 1032.05 151.267 1032.05 148.2V132.6C1032.05 129.133 1031.45 126.067 1030.25 123.4C1029.18 120.6 1027.45 118.467 1025.05 117C1022.78 115.533 1019.78 114.8 1016.05 114.8C1013.38 114.8 1010.71 115.2 1008.05 116C1005.38 116.667 1003.18 117.867 1001.45 119.6C1005.18 120.933 1008.05 123 1010.05 125.8C1012.18 128.467 1013.25 131.533 1013.25 135C1013.25 139.533 1011.65 143.133 1008.45 145.8C1005.38 148.467 1001.71 149.8 997.448 149.8C992.648 149.8 988.981 148.333 986.448 145.4C984.048 142.333 982.848 138.667 982.848 134.4C982.848 130.533 983.781 127.333 985.648 124.8C987.648 122.267 990.381 119.867 993.848 117.6C997.581 115.467 1002.05 113.8 1007.25 112.6C1012.58 111.4 1018.31 110.8 1024.45 110.8C1030.58 110.8 1036.11 111.467 1041.05 112.8C1045.98 114 1050.11 116.267 1053.45 119.6C1056.51 122.667 1058.51 126.467 1059.45 131C1060.38 135.4 1060.85 141 1060.85 147.8V202.2C1060.85 205.533 1061.18 207.867 1061.85 209.2C1062.51 210.4 1063.65 211 1065.25 211C1066.45 211 1067.58 210.667 1068.65 210C1069.85 209.333 1071.11 208.533 1072.45 207.6L1074.45 211C1071.65 213.4 1068.38 215.267 1064.65 216.6C1061.05 217.8 1056.98 218.4 1052.45 218.4C1047.51 218.4 1043.58 217.733 1040.65 216.4C1037.71 214.933 1035.58 213 1034.25 210.6C1033.05 208.2 1032.45 205.4 1032.45 202.2C1029.25 207.267 1025.38 211.267 1020.85 214.2C1016.31 217 1010.78 218.4 1004.25 218.4ZM1018.45 205.6C1021.11 205.6 1023.51 205 1025.65 203.8C1027.91 202.467 1030.05 200.333 1032.05 197.4V156.4C1030.85 158.4 1029.18 160.2 1027.05 161.8C1024.91 163.4 1022.65 165.067 1020.25 166.8C1017.85 168.4 1015.51 170.2 1013.25 172.2C1011.11 174.2 1009.38 176.667 1008.05 179.6C1006.71 182.533 1006.05 186.067 1006.05 190.2C1006.05 195.4 1007.18 199.267 1009.45 201.8C1011.71 204.333 1014.71 205.6 1018.45 205.6ZM1127.87 75.4C1131.33 75.5333 1135.87 75.6667 1141.47 75.8C1147.07 75.9333 1152.67 76 1158.27 76C1164.67 76 1170.87 75.9333 1176.87 75.8C1182.87 75.6667 1187.13 75.6 1189.67 75.6C1206.2 75.6 1218.53 78.5333 1226.67 84.4C1234.93 90.2667 1239.07 97.8 1239.07 107C1239.07 111.667 1237.67 116.4 1234.87 121.2C1232.07 126 1227.73 130.267 1221.87 134C1216 137.733 1208.4 140.467 1199.07 142.2V142.6C1211.6 143.533 1221.53 145.8 1228.87 149.4C1236.2 153 1241.47 157.333 1244.67 162.4C1247.87 167.467 1249.47 172.733 1249.47 178.2C1249.47 186.6 1247.27 193.667 1242.87 199.4C1238.47 205.133 1232.13 209.533 1223.87 212.6C1215.6 215.533 1205.73 217 1194.27 217C1191.07 217 1186.47 216.933 1180.47 216.8C1174.47 216.533 1167.2 216.4 1158.67 216.4C1152.8 216.4 1147.07 216.467 1141.47 216.6C1135.87 216.6 1131.33 216.733 1127.87 217V213C1132.13 212.733 1135.33 212.2 1137.47 211.4C1139.6 210.6 1141 209 1141.67 206.6C1142.47 204.2 1142.87 200.6 1142.87 195.8V96.6C1142.87 91.6667 1142.47 88.0667 1141.67 85.8C1141 83.4 1139.53 81.8 1137.27 81C1135.13 80.0667 1132 79.5333 1127.87 79.4V75.4ZM1187.07 79.4C1181.87 79.4 1178.47 80.5333 1176.87 82.8C1175.4 85.0667 1174.67 89.6667 1174.67 96.6V195.8C1174.67 200.467 1175 204 1175.67 206.4C1176.47 208.8 1177.8 210.4 1179.67 211.2C1181.67 212 1184.6 212.4 1188.47 212.4C1198.07 212.4 1205.07 209.4 1209.47 203.4C1214 197.267 1216.27 188.6 1216.27 177.4C1216.27 167.133 1213.67 159.2 1208.47 153.6C1203.4 148 1194.93 145.2 1183.07 145.2H1166.07C1166.07 145.2 1166.07 144.667 1166.07 143.6C1166.07 142.4 1166.07 141.8 1166.07 141.8H1183.27C1189.53 141.8 1194.33 140.333 1197.67 137.4C1201 134.333 1203.33 130.333 1204.67 125.4C1206 120.333 1206.67 114.933 1206.67 109.2C1206.67 99.3333 1205.13 91.9333 1202.07 87C1199 81.9333 1194 79.4 1187.07 79.4ZM1311.84 110.8C1323.57 110.8 1332.77 114.267 1339.44 121.2C1346.11 128.133 1349.44 139.467 1349.44 155.2H1283.64L1283.24 151.4H1324.24C1324.37 144.867 1323.97 138.867 1323.04 133.4C1322.11 127.8 1320.64 123.333 1318.64 120C1316.64 116.667 1313.97 115 1310.64 115C1305.97 115 1301.97 117.933 1298.64 123.8C1295.44 129.667 1293.51 139.4 1292.84 153L1293.44 154.2C1293.31 155.8 1293.17 157.467 1293.04 159.2C1293.04 160.933 1293.04 162.733 1293.04 164.6C1293.04 173.8 1294.31 181.267 1296.84 187C1299.51 192.733 1302.84 196.933 1306.84 199.6C1310.84 202.133 1314.91 203.4 1319.04 203.4C1321.84 203.4 1324.71 203 1327.64 202.2C1330.71 201.267 1333.77 199.667 1336.84 197.4C1339.91 195 1342.77 191.667 1345.44 187.4L1349.04 188.6C1347.44 193.667 1344.91 198.6 1341.44 203.4C1337.97 208.2 1333.57 212.133 1328.24 215.2C1322.91 218.267 1316.51 219.8 1309.04 219.8C1299.97 219.8 1291.97 217.867 1285.04 214C1278.11 210.133 1272.64 204.267 1268.64 196.4C1264.77 188.533 1262.84 178.533 1262.84 166.4C1262.84 154 1264.91 143.667 1269.04 135.4C1273.31 127.133 1279.11 121 1286.44 117C1293.91 112.867 1302.37 110.8 1311.84 110.8ZM1428.65 110.8C1432.92 110.8 1436.38 111.733 1439.05 113.6C1441.72 115.333 1443.65 117.6 1444.85 120.4C1446.18 123.2 1446.85 126.133 1446.85 129.2C1446.85 134.133 1445.38 138.2 1442.45 141.4C1439.65 144.467 1435.92 146 1431.25 146C1426.58 146 1422.92 144.867 1420.25 142.6C1417.72 140.2 1416.45 137.067 1416.45 133.2C1416.45 129.467 1417.25 126.4 1418.85 124C1420.58 121.467 1422.72 119.333 1425.25 117.6C1423.38 117.067 1421.52 117.133 1419.65 117.8C1417.12 118.2 1414.72 119.267 1412.45 121C1410.18 122.6 1408.25 124.667 1406.65 127.2C1405.05 129.6 1403.78 132.267 1402.85 135.2C1401.92 138 1401.45 140.733 1401.45 143.4V196.4C1401.45 202.8 1402.98 207.133 1406.05 209.4C1409.25 211.667 1413.98 212.8 1420.25 212.8V217C1417.18 216.867 1412.72 216.733 1406.85 216.6C1400.98 216.333 1394.85 216.2 1388.45 216.2C1383.12 216.2 1377.72 216.333 1372.25 216.6C1366.78 216.733 1362.65 216.867 1359.85 217V212.8C1364.52 212.8 1367.78 211.8 1369.65 209.8C1371.65 207.8 1372.65 204 1372.65 198.4V135.4C1372.65 129.4 1371.72 125 1369.85 122.2C1368.12 119.267 1364.78 117.8 1359.85 117.8V113.6C1364.12 114 1368.25 114.2 1372.25 114.2C1377.85 114.2 1383.05 114 1387.85 113.6C1392.78 113.067 1397.32 112.333 1401.45 111.4V130C1403.05 126.4 1405.18 123.133 1407.85 120.2C1410.52 117.267 1413.58 115 1417.05 113.4C1420.52 111.667 1424.38 110.8 1428.65 110.8ZM1480.81 218.4C1474.81 218.4 1469.81 217.267 1465.81 215C1461.81 212.733 1458.88 209.733 1457.01 206C1455.14 202.133 1454.21 197.933 1454.21 193.4C1454.21 187.667 1455.48 183 1458.01 179.4C1460.68 175.8 1464.08 172.867 1468.21 170.6C1472.34 168.333 1476.68 166.467 1481.21 165C1485.88 163.533 1490.28 162.133 1494.41 160.8C1498.68 159.333 1502.08 157.667 1504.61 155.8C1507.28 153.8 1508.61 151.267 1508.61 148.2V132.6C1508.61 129.133 1508.01 126.067 1506.81 123.4C1505.74 120.6 1504.01 118.467 1501.61 117C1499.34 115.533 1496.34 114.8 1492.61 114.8C1489.94 114.8 1487.28 115.2 1484.61 116C1481.94 116.667 1479.74 117.867 1478.01 119.6C1481.74 120.933 1484.61 123 1486.61 125.8C1488.74 128.467 1489.81 131.533 1489.81 135C1489.81 139.533 1488.21 143.133 1485.01 145.8C1481.94 148.467 1478.28 149.8 1474.01 149.8C1469.21 149.8 1465.54 148.333 1463.01 145.4C1460.61 142.333 1459.41 138.667 1459.41 134.4C1459.41 130.533 1460.34 127.333 1462.21 124.8C1464.21 122.267 1466.94 119.867 1470.41 117.6C1474.14 115.467 1478.61 113.8 1483.81 112.6C1489.14 111.4 1494.88 110.8 1501.01 110.8C1507.14 110.8 1512.68 111.467 1517.61 112.8C1522.54 114 1526.68 116.267 1530.01 119.6C1533.08 122.667 1535.08 126.467 1536.01 131C1536.94 135.4 1537.41 141 1537.41 147.8V202.2C1537.41 205.533 1537.74 207.867 1538.41 209.2C1539.08 210.4 1540.21 211 1541.81 211C1543.01 211 1544.14 210.667 1545.21 210C1546.41 209.333 1547.68 208.533 1549.01 207.6L1551.01 211C1548.21 213.4 1544.94 215.267 1541.21 216.6C1537.61 217.8 1533.54 218.4 1529.01 218.4C1524.08 218.4 1520.14 217.733 1517.21 216.4C1514.28 214.933 1512.14 213 1510.81 210.6C1509.61 208.2 1509.01 205.4 1509.01 202.2C1505.81 207.267 1501.94 211.267 1497.41 214.2C1492.88 217 1487.34 218.4 1480.81 218.4ZM1495.01 205.6C1497.68 205.6 1500.08 205 1502.21 203.8C1504.48 202.467 1506.61 200.333 1508.61 197.4V156.4C1507.41 158.4 1505.74 160.2 1503.61 161.8C1501.48 163.4 1499.21 165.067 1496.81 166.8C1494.41 168.4 1492.08 170.2 1489.81 172.2C1487.68 174.2 1485.94 176.667 1484.61 179.6C1483.28 182.533 1482.61 186.067 1482.61 190.2C1482.61 195.4 1483.74 199.267 1486.01 201.8C1488.28 204.333 1491.28 205.6 1495.01 205.6Z" fill="black"/>
</svg>
